<svg width="30" height="30" viewBox="0 0 30 30" fill="none" xmlns="http://www.w3.org/2000/svg">
<path d="M4.02377 5.35127C3.93661 5.26411 3.86747 5.16063 3.82029 5.04674C3.77312 4.93286 3.74884 4.81079 3.74884 4.68752C3.74884 4.56425 3.77312 4.44219 3.82029 4.32831C3.86747 4.21442 3.93661 4.11094 4.02377 4.02377C4.11094 3.93661 4.21442 3.86747 4.32831 3.82029C4.44219 3.77312 4.56425 3.74884 4.68752 3.74884C4.81079 3.74884 4.93286 3.77312 5.04674 3.82029C5.16063 3.86747 5.26411 3.93661 5.35127 4.02377L15 13.6744L24.6488 4.02377C24.7359 3.93661 24.8394 3.86747 24.9533 3.82029C25.0672 3.77312 25.1893 3.74884 25.3125 3.74884C25.4358 3.74884 25.5579 3.77312 25.6717 3.82029C25.7856 3.86747 25.8891 3.93661 25.9763 4.02377C26.0634 4.11094 26.1326 4.21442 26.1798 4.32831C26.2269 4.44219 26.2512 4.56425 26.2512 4.68752C26.2512 4.81079 26.2269 4.93286 26.1798 5.04674C26.1326 5.16063 26.0634 5.26411 25.9763 5.35127L16.3256 15L25.9763 24.6488C26.0634 24.7359 26.1326 24.8394 26.1798 24.9533C26.2269 25.0672 26.2512 25.1893 26.2512 25.3125C26.2512 25.4358 26.2269 25.5579 26.1798 25.6717C26.1326 25.7856 26.0634 25.8891 25.9763 25.9763C25.8891 26.0634 25.7856 26.1326 25.6717 26.1798C25.5579 26.2269 25.4358 26.2512 25.3125 26.2512C25.1893 26.2512 25.0672 26.2269 24.9533 26.1798C24.8394 26.1326 24.7359 26.0634 24.6488 25.9763L15 16.3256L5.35127 25.9763C5.26411 26.0634 5.16063 26.1326 5.04674 26.1798C4.93286 26.2269 4.81079 26.2512 4.68752 26.2512C4.56425 26.2512 4.44219 26.2269 4.32831 26.1798C4.21442 26.1326 4.11094 26.0634 4.02377 25.9763C3.93661 25.8891 3.86747 25.7856 3.82029 25.6717C3.77312 25.5579 3.74884 25.4358 3.74884 25.3125C3.74884 25.1893 3.77312 25.0672 3.82029 24.9533C3.86747 24.8394 3.93661 24.7359 4.02377 24.6488L13.6744 15L4.02377 5.35127Z" fill="white"/>
</svg>
