<svg width="42" height="42" viewBox="0 0 42 42" fill="none" xmlns="http://www.w3.org/2000/svg">
<rect width="42" height="42" rx="10" fill="white"/>
<path fill-rule="evenodd" clip-rule="evenodd" d="M10 29C10 28.7348 10.1054 28.4804 10.2929 28.2929C10.4804 28.1054 10.7348 28 11 28H31C31.2652 28 31.5196 28.1054 31.7071 28.2929C31.8946 28.4804 32 28.7348 32 29C32 29.2652 31.8946 29.5196 31.7071 29.7071C31.5196 29.8946 31.2652 30 31 30H11C10.7348 30 10.4804 29.8946 10.2929 29.7071C10.1054 29.5196 10 29.2652 10 29ZM10 21C10 20.7348 10.1054 20.4804 10.2929 20.2929C10.4804 20.1054 10.7348 20 11 20H31C31.2652 20 31.5196 20.1054 31.7071 20.2929C31.8946 20.4804 32 20.7348 32 21C32 21.2652 31.8946 21.5196 31.7071 21.7071C31.5196 21.8946 31.2652 22 31 22H11C10.7348 22 10.4804 21.8946 10.2929 21.7071C10.1054 21.5196 10 21.2652 10 21ZM10 13C10 12.7348 10.1054 12.4804 10.2929 12.2929C10.4804 12.1054 10.7348 12 11 12H31C31.2652 12 31.5196 12.1054 31.7071 12.2929C31.8946 12.4804 32 12.7348 32 13C32 13.2652 31.8946 13.5196 31.7071 13.7071C31.5196 13.8946 31.2652 14 31 14H11C10.7348 14 10.4804 13.8946 10.2929 13.7071C10.1054 13.5196 10 13.2652 10 13Z" fill="#1E1E1E"/>
</svg>
