<svg width="70" height="70" viewBox="0 0 70 70" fill="none" xmlns="http://www.w3.org/2000/svg">
<path d="M8.75 6.5625C8.75 5.98234 8.98047 5.42594 9.3907 5.0157C9.80094 4.60547 10.3573 4.375 10.9375 4.375H59.0625C59.6427 4.375 60.1991 4.60547 60.6093 5.0157C61.0195 5.42594 61.25 5.98234 61.25 6.5625C61.25 7.14266 61.0195 7.69906 60.6093 8.1093C60.1991 8.51953 59.6427 8.75 59.0625 8.75H54.6875V13.125C54.6884 16.8395 53.6384 20.4785 51.6589 23.6216C49.6794 26.7647 46.851 29.2837 43.5006 30.8875C42.2319 31.4956 41.5625 32.5369 41.5625 33.4688V36.5312C41.5625 37.4631 42.2362 38.5044 43.5006 39.1125C46.851 40.7163 49.6794 43.2353 51.6589 46.3784C53.6384 49.5215 54.6884 53.1605 54.6875 56.875V61.25H59.0625C59.6427 61.25 60.1991 61.4805 60.6093 61.8907C61.0195 62.3009 61.25 62.8573 61.25 63.4375C61.25 64.0177 61.0195 64.5741 60.6093 64.9843C60.1991 65.3945 59.6427 65.625 59.0625 65.625H10.9375C10.3573 65.625 9.80094 65.3945 9.3907 64.9843C8.98047 64.5741 8.75 64.0177 8.75 63.4375C8.75 62.8573 8.98047 62.3009 9.3907 61.8907C9.80094 61.4805 10.3573 61.25 10.9375 61.25H15.3125V56.875C15.3116 53.1605 16.3616 49.5215 18.3411 46.3784C20.3206 43.2353 23.149 40.7163 26.4994 39.1125C27.7681 38.5044 28.4375 37.4631 28.4375 36.5312V33.4688C28.4375 32.5369 27.7638 31.4956 26.4994 30.8875C23.149 29.2837 20.3206 26.7647 18.3411 23.6216C16.3616 20.4785 15.3116 16.8395 15.3125 13.125V8.75H10.9375C10.3573 8.75 9.80094 8.51953 9.3907 8.1093C8.98047 7.69906 8.75 7.14266 8.75 6.5625ZM19.6875 8.75V13.125C19.6867 16.0143 20.5034 18.8449 22.0432 21.2898C23.583 23.7346 25.7832 25.6939 28.3894 26.9412C30.7212 28.0613 32.8125 30.4019 32.8125 33.4644V36.5356C32.8125 39.5981 30.7212 41.9388 28.3894 43.0588C25.7832 44.3061 23.583 46.2654 22.0432 48.7102C20.5034 51.1551 19.6867 53.9857 19.6875 56.875V61.25H50.3125V56.875C50.3133 53.9857 49.4966 51.1551 47.9568 48.7102C46.417 46.2654 44.2168 44.3061 41.6106 43.0588C39.2787 41.9388 37.1875 39.6025 37.1875 36.5356V33.4644C37.1875 30.4019 39.2787 28.0613 41.6106 26.9412C44.2168 25.6939 46.417 23.7346 47.9568 21.2898C49.4966 18.8449 50.3133 16.0143 50.3125 13.125V8.75H19.6875Z" fill="black"/>
</svg>
