<svg width="70" height="70" viewBox="0 0 70 70" fill="none" xmlns="http://www.w3.org/2000/svg">
<path d="M65.625 61.25C65.625 61.25 70 61.25 70 56.875C70 52.5 65.625 39.375 48.125 39.375C30.625 39.375 26.25 52.5 26.25 56.875C26.25 61.25 30.625 61.25 30.625 61.25H65.625ZM30.7212 56.875L30.625 56.8575C30.6294 55.7025 31.3556 52.3512 33.95 49.3325C36.365 46.5019 40.6087 43.75 48.125 43.75C55.6369 43.75 59.8806 46.5062 62.3 49.3325C64.8944 52.3512 65.6162 55.7069 65.625 56.8575L65.59 56.8662L65.5287 56.875H30.7212ZM48.125 30.625C50.4456 30.625 52.6712 29.7031 54.3122 28.0622C55.9531 26.4212 56.875 24.1956 56.875 21.875C56.875 19.5544 55.9531 17.3288 54.3122 15.6878C52.6712 14.0469 50.4456 13.125 48.125 13.125C45.8044 13.125 43.5788 14.0469 41.9378 15.6878C40.2969 17.3288 39.375 19.5544 39.375 21.875C39.375 24.1956 40.2969 26.4212 41.9378 28.0622C43.5788 29.7031 45.8044 30.625 48.125 30.625ZM61.25 21.875C61.25 23.5986 60.9105 25.3053 60.2509 26.8977C59.5913 28.4901 58.6245 29.937 57.4058 31.1558C56.187 32.3745 54.7401 33.3413 53.1477 34.0009C51.5553 34.6605 49.8486 35 48.125 35C46.4014 35 44.6947 34.6605 43.1023 34.0009C41.5099 33.3413 40.063 32.3745 38.8442 31.1558C37.6255 29.937 36.6587 28.4901 35.9991 26.8977C35.3395 25.3053 35 23.5986 35 21.875C35 18.394 36.3828 15.0556 38.8442 12.5942C41.3056 10.1328 44.644 8.75 48.125 8.75C51.606 8.75 54.9444 10.1328 57.4058 12.5942C59.8672 15.0556 61.25 18.394 61.25 21.875ZM30.345 40.6C28.5939 40.0527 26.7903 39.6905 24.9637 39.5194C23.9373 39.4193 22.9064 39.3711 21.875 39.375C4.375 39.375 0 52.5 0 56.875C0 59.7917 1.45833 61.25 4.375 61.25H22.82C22.1717 59.8841 21.8483 58.3867 21.875 56.875C21.875 52.4562 23.5244 47.9412 26.6438 44.17C27.7069 42.8837 28.945 41.6806 30.345 40.6ZM21.525 43.75C18.9373 47.6413 17.5387 52.202 17.5 56.875H4.375C4.375 55.7375 5.0925 52.3688 7.7 49.3325C10.0844 46.55 14.2275 43.8375 21.525 43.7544V43.75ZM6.5625 24.0625C6.5625 20.5815 7.94531 17.2431 10.4067 14.7817C12.8681 12.3203 16.2065 10.9375 19.6875 10.9375C23.1685 10.9375 26.5069 12.3203 28.9683 14.7817C31.4297 17.2431 32.8125 20.5815 32.8125 24.0625C32.8125 27.5435 31.4297 30.8819 28.9683 33.3433C26.5069 35.8047 23.1685 37.1875 19.6875 37.1875C16.2065 37.1875 12.8681 35.8047 10.4067 33.3433C7.94531 30.8819 6.5625 27.5435 6.5625 24.0625ZM19.6875 15.3125C17.3669 15.3125 15.1413 16.2344 13.5003 17.8753C11.8594 19.5163 10.9375 21.7419 10.9375 24.0625C10.9375 26.3831 11.8594 28.6087 13.5003 30.2497C15.1413 31.8906 17.3669 32.8125 19.6875 32.8125C22.0081 32.8125 24.2337 31.8906 25.8747 30.2497C27.5156 28.6087 28.4375 26.3831 28.4375 24.0625C28.4375 21.7419 27.5156 19.5163 25.8747 17.8753C24.2337 16.2344 22.0081 15.3125 19.6875 15.3125Z" fill="black"/>
</svg>
