<svg width="75" height="75" viewBox="0 0 75 75" fill="none" xmlns="http://www.w3.org/2000/svg">
<path d="M0 19.0179C0 16.5314 0.987721 14.1469 2.74587 12.3887C4.50403 10.6306 6.8886 9.64285 9.375 9.64285H65.625C68.1114 9.64285 70.496 10.6306 72.2541 12.3887C74.0123 14.1469 75 16.5314 75 19.0179V56.5179C75 59.0043 74.0123 61.3888 72.2541 63.147C70.496 64.9051 68.1114 65.8929 65.625 65.8929H9.375C6.8886 65.8929 4.50403 64.9051 2.74587 63.147C0.987721 61.3888 0 59.0043 0 56.5179V19.0179ZM9.375 14.3304C8.1318 14.3304 6.93951 14.8242 6.06044 15.7033C5.18136 16.5824 4.6875 17.7747 4.6875 19.0179V20.035L37.5 39.7225L70.3125 20.035V19.0179C70.3125 17.7747 69.8186 16.5824 68.9396 15.7033C68.0605 14.8242 66.8682 14.3304 65.625 14.3304H9.375ZM70.3125 25.5007L48.2437 38.7429L70.3125 52.3225V25.5007ZM70.1531 57.7319L43.7156 41.4616L37.5 45.1882L31.2844 41.4616L4.84688 57.7272C5.11325 58.7247 5.70148 59.6064 6.52026 60.2353C7.33905 60.8642 8.34256 61.2052 9.375 61.2054H65.625C66.6568 61.2055 67.6599 60.8651 68.4786 60.2371C69.2973 59.6091 69.8859 58.7285 70.1531 57.7319ZM4.6875 52.3225L26.7563 38.7429L4.6875 25.5007V52.3225Z" fill="black"/>
</svg>
